<svg id="logosandtypes_com" xmlns="http://www.w3.org/2000/svg" viewBox="0 0 150 150"><path d="M0 0h150v150H0V0z" fill="none"/><path d="M102.7 63.4c0-3.7-.6-5.8-1.7-7.1-1.1-1.1-3.4-1.5-7.1-1.5H47.2v6.7h48.2v3.1H55.8c-3.7 0-6.1.6-7 1.3-1.1.9-1.6 2.9-1.6 6.5h55.5v-9zM93.9 82.9c3.7 0 6.1-.3 7-1 1.1-.7 1.6-3.2 1.6-6.3H47.2v8.8c0 3.7.5 6 1.6 7.2 1.1 1.1 3.3 1.6 7 1.6h46.9V86H54.5v-3.1h39.4z"/><path d="M74.8 36.3c18.9 0 34.5 13.9 37.3 32h9.3C118.6 45 98.8 27 74.8 27S31 45 28.2 68.3h9.3c2.8-18.1 18.4-32 37.3-32zM112.3 78.2c-2.1 19.2-18.1 33.6-37.5 33.6S39.4 97.4 37.3 78.2H28c2.1 23.9 22.2 42.9 46.8 42.9s44.7-19 46.8-42.9h-9.3z"/><path d="M74.7 12.6c-33.9 0-61.4 27.5-61.4 61.4s27.5 61.4 61.4 61.4 61.4-27.5 61.4-61.4-27.5-61.4-61.4-61.4zm0 116.7c-30.5 0-55.2-24.7-55.2-55.2s24.7-55.2 55.2-55.2 55.2 24.7 55.2 55.2-24.7 55.2-55.2 55.2z"/></svg>